<svg width="45" height="44" viewBox="0 0 45 44" fill="none" xmlns="http://www.w3.org/2000/svg">
<path fill-rule="evenodd" clip-rule="evenodd" d="M4.1665 22C4.1665 11.8748 12.3746 3.66667 22.4998 3.66667C32.6251 3.66667 40.8332 11.8748 40.8332 22C40.8332 32.1252 32.6251 40.3333 22.4998 40.3333C12.3746 40.3333 4.1665 32.1252 4.1665 22ZM7.83309 22C7.83309 13.8998 14.3996 7.33334 22.4998 7.33334C30.5999 7.33334 37.1664 13.8998 37.1664 22C37.1664 30.1002 30.5999 36.6667 22.4998 36.6667C14.3996 36.6667 7.83309 30.1002 7.83309 22ZM16.106 17.9395C15.9291 18.4216 15.7651 18.8685 15.6284 19.1542C15.1832 20.0847 15.9076 20.5944 16.5416 20.9093C17.1755 21.2241 19.1158 18.7564 19.1158 18.7564L21.3541 20.3958C21.3541 20.3958 21.6802 23.1139 22.2984 23.6042C22.9165 24.0945 24.1627 24.0945 24.1627 24.0945L26.5084 25.1731C26.5084 25.1731 25.9898 26.2182 26.1666 26.8125C26.3434 27.4068 27.2237 28.3814 27.2237 28.3814C27.2237 28.3814 25.5114 32.0741 26.1666 33.2292L27.7707 33.2292C28.4473 33.2292 32.7454 27.8719 32.5832 26.8125C32.4211 25.7531 27.2237 24.9089 27.2237 24.9089C27.2237 24.9089 25.5345 24.2401 24.8834 23.5689C24.5624 23.2959 24.8834 22.7015 24.8834 22.7015C24.8834 22.7015 25.6404 23.0141 26.1815 22.7015C26.7226 22.389 28.4473 20.6431 28.4473 20.6431C28.4473 20.6431 28.811 21.1904 29.3749 20.3958C29.9389 19.6013 28.733 17.8435 27.7707 17.8603C26.6887 17.8771 26.1815 19.486 26.1815 19.486L24.4512 18.4477C24.4512 18.4477 26.2199 17.941 26.1815 17.1875C26.1431 16.434 25.0838 15.2679 24.3053 15.5833C23.5267 15.8988 24.1627 16.8634 24.1627 16.8634C22.9582 17.1875 21.6545 16.8634 21.6545 16.8634C21.6545 16.8634 20.4477 16.1863 19.3433 16.3096C18.6778 16.3838 18.5237 16.6633 18.4195 16.8525C18.3507 16.9772 18.3036 17.0627 18.1457 17.0243C17.9192 16.9693 17.8454 16.6362 17.7718 16.3041C17.6918 15.9431 17.6121 15.5833 17.3368 15.5833C16.9705 15.5833 16.5053 16.8513 16.106 17.9395ZM27.674 15.3083C26.1255 15.3083 22.4021 13.3402 23.0284 12.2822C23.0284 10.7691 26.9414 10.9968 27.7815 10.9968C28.6216 10.9968 30.6772 11.6459 31.8196 12.5541C32.962 13.4622 31.339 14.7595 30.7712 15.3083C30.2033 15.8571 29.2226 15.3083 27.674 15.3083Z" fill="url(#paint0_linear_277_676)"/>
<defs>
<linearGradient id="paint0_linear_277_676" x1="22.4998" y1="3.66667" x2="22.4998" y2="40.3333" gradientUnits="userSpaceOnUse">
<stop stop-color="#310000"/>
<stop offset="0.482292" stop-color="white"/>
<stop offset="1" stop-color="#310000"/>
</linearGradient>
</defs>
</svg>
