<svg width="44" height="44" viewBox="0 0 44 44" fill="none" xmlns="http://www.w3.org/2000/svg">
<path d="M37.2479 7.61859C34.4434 6.33181 31.4361 5.38376 28.2918 4.84078C28.2346 4.8303 28.1774 4.85649 28.1479 4.90887C27.7611 5.59676 27.3327 6.49417 27.0327 7.19954C23.6507 6.69323 20.2862 6.69323 16.9736 7.19954C16.6735 6.4785 16.2296 5.59676 15.8411 4.90887C15.8116 4.85824 15.7544 4.83205 15.6971 4.84078C12.5545 5.38203 9.54719 6.33007 6.74105 7.61859C6.71675 7.62906 6.69593 7.64654 6.68211 7.66922C0.977885 16.1912 -0.584742 24.5037 0.18183 32.7132C0.185299 32.7534 0.207845 32.7918 0.239063 32.8162C4.00255 35.58 7.64813 37.2579 11.226 38.3701C11.2833 38.3875 11.3439 38.3666 11.3804 38.3194C12.2267 37.1637 12.9812 35.945 13.628 34.6634C13.6662 34.5884 13.6298 34.4993 13.5518 34.4696C12.3551 34.0157 11.2156 33.4622 10.1195 32.8337C10.0328 32.7831 10.0259 32.6591 10.1056 32.5997C10.3363 32.4268 10.567 32.247 10.7873 32.0654C10.8271 32.0323 10.8826 32.0253 10.9295 32.0462C18.1304 35.3339 25.9262 35.3339 33.0421 32.0462C33.0889 32.0235 33.1445 32.0305 33.186 32.0637C33.4063 32.2453 33.637 32.4268 33.8694 32.5997C33.9492 32.6591 33.944 32.7831 33.8573 32.8337C32.7612 33.4744 31.6217 34.0157 30.4233 34.4679C30.3452 34.4976 30.3105 34.5884 30.3487 34.6634C31.0095 35.9432 31.7639 37.1619 32.5946 38.3177C32.6293 38.3666 32.6918 38.3875 32.749 38.3701C36.3442 37.2579 39.9898 35.58 43.7533 32.8162C43.7863 32.7918 43.8071 32.7551 43.8106 32.715C44.728 23.2239 42.2739 14.9795 37.3051 7.67096C37.2929 7.64654 37.2722 7.62906 37.2479 7.61859ZM14.7034 27.7145C12.5354 27.7145 10.7491 25.7242 10.7491 23.2798C10.7491 20.8354 12.5008 18.8451 14.7034 18.8451C16.9233 18.8451 18.6923 20.8529 18.6576 23.2798C18.6576 25.7242 16.9059 27.7145 14.7034 27.7145ZM29.3237 27.7145C27.1558 27.7145 25.3695 25.7242 25.3695 23.2798C25.3695 20.8354 27.1211 18.8451 29.3237 18.8451C31.5437 18.8451 33.3126 20.8529 33.278 23.2798C33.278 25.7242 31.5437 27.7145 29.3237 27.7145Z" fill="url(#paint0_linear_503_1094)"/>
<defs>
<linearGradient id="paint0_linear_503_1094" x1="22" y1="4.8385" x2="22" y2="38.3762" gradientUnits="userSpaceOnUse">
<stop offset="0.154167" stop-color="#848484"/>
<stop offset="0.473958" stop-color="white" stop-opacity="0.934375"/>
<stop offset="0.878125" stop-color="#525151"/>
</linearGradient>
</defs>
</svg>
