<svg width="45" height="44" viewBox="0 0 45 44" fill="none" xmlns="http://www.w3.org/2000/svg">
<path fill-rule="evenodd" clip-rule="evenodd" d="M22.5003 7.33334C13.4498 7.33334 5.90032 13.6318 4.16699 22C5.90032 30.3682 13.4498 36.6667 22.5003 36.6667C31.5509 36.6667 39.1003 30.3682 40.8337 22C39.1003 13.6318 31.5509 7.33334 22.5003 7.33334ZM31.667 22C31.667 27.0626 27.5629 31.1667 22.5003 31.1667C17.4377 31.1667 13.3337 27.0626 13.3337 22C13.3337 16.9374 17.4377 12.8333 22.5003 12.8333C27.5629 12.8333 31.667 16.9374 31.667 22ZM22.5002 27.5C25.5377 27.5 28.0002 25.0376 28.0002 22C28.0002 18.9624 25.5377 16.5 22.5002 16.5C19.4626 16.5 17.0002 18.9624 17.0002 22C17.0002 25.0376 19.4626 27.5 22.5002 27.5Z" fill="url(#paint0_linear_277_678)"/>
<defs>
<linearGradient id="paint0_linear_277_678" x1="22.5003" y1="7.33334" x2="22.5003" y2="36.6667" gradientUnits="userSpaceOnUse">
<stop stop-color="#310000"/>
<stop offset="0.544792" stop-color="white"/>
<stop offset="1" stop-color="#310000"/>
</linearGradient>
</defs>
</svg>
