<svg width="228" height="48" viewBox="0 0 228 48" fill="none" xmlns="http://www.w3.org/2000/svg">
<rect width="3" height="136" transform="matrix(0 -1 -1 0 182 48)" fill="url(#paint0_linear_277_619)"/>
<path d="M56.5853 0.880341V4.28029H41.1045V11.8944H55.6766V15.2984H41.1045V23.5957H57.2367V26.9998H36.9258V0.880341H56.5853Z" fill="white"/>
<path d="M137.077 0.931152V4.3286H122.473V11.9197H136.265V15.3172H122.473V27H118.242V0.931152H137.077Z" fill="white"/>
<path d="M85.0471 0.880341V4.28029H75.7676V26.9998H71.5551V4.28029H62.2363V0.880341H85.0471Z" fill="white"/>
<path d="M164.229 23.1593L163.778 19.6206C163.479 17.0655 162.162 15.539 159.749 15.0248V14.9513C161.165 14.6201 162.41 13.8023 163.252 12.6493C164.006 11.5922 164.381 9.76362 164.381 8.37589C164.381 5.89431 163.538 4.03313 161.896 2.71887C160.313 1.49441 158.132 0.931152 155.42 0.931152H143.521V4.33924H147.639H154.869C156.751 4.33924 158.107 4.66576 159.008 5.35962C159.85 6.01675 160.271 7.07389 160.271 8.53508C160.271 9.92281 159.82 11.6044 158.957 12.335C158.094 13.0656 156.696 13.4656 154.89 13.4656H147.639V13.4044H143.533V27H147.639V16.8492H154.906C156.448 16.8492 157.618 17.139 158.443 17.7961C159.269 18.4532 159.707 19.4736 159.875 20.9348L160.216 23.5593C160.364 25.0205 160.742 26.1878 161.383 26.9878H165.825C164.864 25.9217 164.302 24.573 164.229 23.1593Z" fill="white"/>
<path d="M30.0514 22.3043H25.833V26.9999H30.0514V22.3043Z" fill="#8D8A8A"/>
<path d="M30.0514 0.880341H25.833V19.2227H30.0514V0.880341Z" fill="white"/>
<path d="M24.7066 0.880341L15.0499 21.8037H14.9323L5.23647 0.880341H0.209961V26.9998H4.45679V8.34304H4.6136L13.1421 26.9998H16.8009L28.9578 0.880341H24.7066Z" fill="white"/>
<path d="M100.634 0.931152H96.4336L106.765 27H111.303L100.634 0.931152Z" fill="white"/>
<path d="M96.97 13.5041H94.9593V13.5H90.6645L85.0337 27H89.6063L93.6188 16.8781H98.4163L96.97 13.5041Z" fill="#8D8A8A"/>
<path d="M187.729 0.931152H183.668L193.655 27H198.042L187.729 0.931152Z" fill="white"/>
<path d="M183.763 13.5041H181.827V13.5H177.691L172.269 27H176.672L180.536 16.8781H185.155L183.763 13.5041Z" fill="#8D8A8A"/>
<path d="M223.783 2.36919C225.786 3.93235 227.082 6.17218 227.402 8.62385H223.365C222.908 6.87683 222.032 5.56656 220.738 4.73013C219.445 3.8937 217.844 3.49403 215.865 3.49403C212.936 3.49403 210.728 4.44171 209.24 6.37826C207.834 8.12116 207.148 10.5233 207.148 13.5435C207.148 16.6709 207.834 19.0689 209.205 20.7788C210.643 22.5945 212.889 23.5037 215.942 23.5065C217.71 23.5717 219.451 23.073 220.889 22.0891C222.261 21.07 223.213 19.5427 223.745 17.5073H227.782C227.173 20.5234 225.763 22.8884 223.516 24.5984C221.374 26.2131 218.709 27.0614 215.981 26.9964C211.526 26.9964 208.175 25.6161 205.932 22.9255C203.952 20.5975 202.999 17.4702 202.999 13.5435C202.999 9.68689 203.987 6.53896 206.044 4.12033C208.33 1.35971 211.603 0 215.964 0C219.104 0.00412033 221.743 0.766381 223.783 2.36919Z" fill="white"/>
<path d="M226.295 10.2411H213.903V14.4308H226.295V10.2411Z" fill="#8D8A8A"/>
<defs>
<linearGradient id="paint0_linear_277_619" x1="1.5" y1="0" x2="1.5" y2="136" gradientUnits="userSpaceOnUse">
<stop stop-color="#C4C4C4" stop-opacity="0"/>
<stop offset="0.513542" stop-color="#C4C4C4"/>
<stop offset="1" stop-color="#C4C4C4" stop-opacity="0"/>
</linearGradient>
</defs>
</svg>
