<svg width="45" height="44" viewBox="0 0 45 44" fill="none" xmlns="http://www.w3.org/2000/svg">
<path fill-rule="evenodd" clip-rule="evenodd" d="M37.053 23.8333C36.2257 30.4676 30.9675 35.7259 24.3332 36.5532V40.3333H20.6665V36.5532C14.0322 35.7259 8.77393 30.4676 7.94664 23.8333H4.1665V20.1667H7.94664C8.77393 13.5323 14.0322 8.27408 20.6665 7.44679V3.66666H24.3332V7.44679C30.9675 8.27408 36.2257 13.5323 37.053 20.1667H40.8332V23.8333H37.053ZM22.4998 33C28.5749 33 33.4998 28.0751 33.4998 22C33.4998 15.9249 28.5749 11 22.4998 11C16.4246 11 11.4998 15.9249 11.4998 22C11.4998 28.0751 16.4246 33 22.4998 33ZM27.9998 22C27.9998 25.0376 25.5373 27.5 22.4998 27.5C19.4622 27.5 16.9998 25.0376 16.9998 22C16.9998 18.9624 19.4622 16.5 22.4998 16.5C25.5373 16.5 27.9998 18.9624 27.9998 22Z" fill="url(#paint0_linear_277_679)"/>
<defs>
<linearGradient id="paint0_linear_277_679" x1="22.4998" y1="3.66666" x2="22.4998" y2="40.3333" gradientUnits="userSpaceOnUse">
<stop stop-color="white"/>
<stop offset="1" stop-color="#310000"/>
</linearGradient>
</defs>
</svg>
