<svg width="44" height="44" viewBox="0 0 44 44" fill="none" xmlns="http://www.w3.org/2000/svg">
<path d="M13.842 39.875C30.4416 39.875 39.5235 26.119 39.5235 14.1935C39.5235 13.8068 39.5149 13.4114 39.4977 13.0247C41.2644 11.7471 42.7891 10.1645 44 8.35144C42.3546 9.08349 40.6077 9.56159 38.8188 9.76941C40.7024 8.64039 42.1126 6.86676 42.7883 4.7773C41.0163 5.82742 39.0786 6.56818 37.058 6.96785C35.6965 5.52126 33.8965 4.56344 31.9361 4.24249C29.9757 3.92153 27.9642 4.25532 26.2125 5.19224C24.4609 6.12916 23.0666 7.61702 22.2454 9.4258C21.4241 11.2346 21.2216 13.2635 21.6691 15.1989C18.0812 15.0189 14.5712 14.0869 11.3666 12.4632C8.16205 10.8396 5.33444 8.56069 3.06711 5.77418C1.91473 7.76101 1.5621 10.1121 2.08089 12.3496C2.59968 14.587 3.95095 16.543 5.86008 17.82C4.42682 17.7745 3.02496 17.3886 1.77031 16.6943V16.806C1.76903 18.891 2.48985 20.9121 3.81023 22.5258C5.13062 24.1395 6.96909 25.2461 9.01312 25.6575C7.68543 26.0208 6.29197 26.0737 4.94055 25.8122C5.51733 27.6054 6.63955 29.1737 8.15058 30.2983C9.66161 31.423 11.4861 32.0478 13.3693 32.0857C10.1721 34.5971 6.22265 35.9593 2.15703 35.9528C1.43603 35.9517 0.715732 35.9076 0 35.8205C4.13024 38.4703 8.93481 39.8776 13.842 39.875Z" fill="url(#paint0_linear_503_1092)"/>
<defs>
<linearGradient id="paint0_linear_503_1092" x1="22" y1="4.12372" x2="22" y2="39.875" gradientUnits="userSpaceOnUse">
<stop offset="0.154167" stop-color="#848484"/>
<stop offset="0.473958" stop-color="white" stop-opacity="0.934375"/>
<stop offset="0.878125" stop-color="#525151"/>
</linearGradient>
</defs>
</svg>
